<svg width="837" height="75" viewBox="0 0 837 75" fill="none" xmlns="http://www.w3.org/2000/svg">
<path d="M0.240234 57.6418C0.240234 57.4848 0.270256 57.3331 0.330303 57.1888C0.390351 57.0434 0.476105 56.9149 0.587561 56.8032C0.698596 56.6926 0.826698 56.6073 0.971865 56.5472C1.11714 56.4872 1.2682 56.4566 1.42538 56.4566H834.978C835.135 56.4566 835.287 56.4872 835.431 56.5472C835.577 56.6073 835.705 56.6926 835.816 56.8032C835.927 56.9149 836.013 57.0434 836.073 57.1877C836.133 57.3331 836.163 57.4848 836.163 57.6418C836.163 57.7988 836.133 57.9505 836.073 58.0958C836.013 58.2402 835.927 58.3687 835.816 58.4793C835.705 58.591 835.577 58.6763 835.431 58.7363C835.287 58.7964 835.135 58.8269 834.978 58.8269H1.42538C1.2682 58.8269 1.11714 58.7964 0.971865 58.7363C0.826593 58.6763 0.698701 58.591 0.587561 58.4793C0.475999 58.3687 0.390456 58.2402 0.330303 58.0958C0.270256 57.9505 0.240234 57.7988 0.240234 57.6418Z" fill="#FFE14D"/>
<path d="M203.69 55.8888V2.16217C203.69 2.0052 203.721 1.85353 203.781 1.7092C203.841 1.56382 203.926 1.43528 204.038 1.32362C204.149 1.213 204.277 1.12768 204.423 1.06763C204.567 1.00759 204.719 0.977024 204.876 0.977024C205.033 0.977024 205.184 1.00759 205.329 1.06763C205.474 1.12768 205.602 1.213 205.713 1.32362C205.825 1.43528 205.91 1.56382 205.97 1.7092C206.03 1.85353 206.061 2.0052 206.061 2.16217V55.8888C206.061 56.0458 206.03 56.1975 205.97 56.3418C205.91 56.4872 205.825 56.6157 205.713 56.7263C205.602 56.838 205.474 56.9233 205.329 56.9834C205.184 57.0434 205.033 57.0739 204.876 57.0739C204.719 57.0739 204.567 57.0434 204.423 56.9834C204.277 56.9233 204.149 56.838 204.038 56.7263C203.926 56.6157 203.841 56.4872 203.781 56.3418C203.721 56.1975 203.69 56.0458 203.69 55.8888Z" fill="#FFE14D"/>
<ellipse cx="17.7772" cy="17.7772" rx="17.7772" ry="17.7772" transform="matrix(1 0 0 -1 187.493 74.4561)" fill="#FFE14D"/>
</svg>
