<svg width="37" height="75" viewBox="0 0 37 75" fill="none" xmlns="http://www.w3.org/2000/svg">
<path d="M17.0166 73.5412V19.8145C17.0166 19.6576 17.0471 19.5059 17.1072 19.3615C17.1672 19.2162 17.2526 19.0877 17.3632 18.976C17.4749 18.8654 17.6034 18.7801 17.7488 18.72C17.8931 18.66 18.0448 18.6294 18.2017 18.6294C18.3587 18.6294 18.5104 18.66 18.6547 18.72C18.8001 18.7801 18.9287 18.8654 19.0393 18.976C19.1509 19.0877 19.2363 19.2162 19.2963 19.3615C19.3564 19.5059 19.3869 19.6576 19.3869 19.8145V73.5412C19.3869 73.6981 19.3564 73.8498 19.2963 73.9952C19.2363 74.1395 19.1509 74.2681 19.0393 74.3787C18.9287 74.4904 18.8001 74.5757 18.6547 74.6357C18.5104 74.6968 18.3587 74.7263 18.2017 74.7263C18.0448 74.7263 17.8931 74.6968 17.7488 74.6357C17.6034 74.5757 17.4749 74.4904 17.3632 74.3787C17.2526 74.2681 17.1672 74.1395 17.1072 73.9952C17.0471 73.8498 17.0166 73.6981 17.0166 73.5412Z" fill="#FFE14D"/>
<circle cx="18.1722" cy="18.1722" r="18.1722" transform="matrix(1 0 0 -1 0.0292969 36.8016)" fill="#FFE14D"/>
</svg>
