<svg width="36" height="75" viewBox="0 0 36 75" fill="none" xmlns="http://www.w3.org/2000/svg">
<path d="M17.343 55.8888V2.16217C17.343 2.0052 17.3736 1.85353 17.4336 1.7092C17.4936 1.56382 17.579 1.43528 17.6896 1.32362C17.8013 1.213 17.9298 1.12768 18.0752 1.06763C18.2195 1.00759 18.3712 0.977024 18.5282 0.977024C18.6851 0.977024 18.8368 1.00759 18.9811 1.06763C19.1265 1.12768 19.2551 1.213 19.3657 1.32362C19.4774 1.43528 19.5627 1.56382 19.6227 1.7092C19.6828 1.85353 19.7133 2.0052 19.7133 2.16217V55.8888C19.7133 56.0458 19.6828 56.1975 19.6227 56.3418C19.5627 56.4872 19.4774 56.6157 19.3657 56.7263C19.2551 56.838 19.1265 56.9233 18.9811 56.9834C18.8368 57.0434 18.6851 57.0739 18.5282 57.0739C18.3712 57.0739 18.2195 57.0434 18.0752 56.9834C17.9298 56.9233 17.8013 56.838 17.6896 56.7263C17.579 56.6157 17.4936 56.4872 17.4336 56.3418C17.3736 56.1975 17.343 56.0458 17.343 55.8888Z" fill="#FFE14D"/>
<ellipse cx="17.7772" cy="17.7772" rx="17.7772" ry="17.7772" transform="matrix(1 0 0 -1 0.355713 74.4561)" fill="#FFE14D"/>
</svg>
